<svg width="60" height="14" viewBox="0 0 60 14" fill="none" xmlns="http://www.w3.org/2000/svg">
<path d="M39.006 5.19439V9.59764H34.5318C34.0729 9.59764 33.7288 9.2307 33.7288 8.80731V5.22264C33.7288 4.77103 34.1016 4.43231 34.5318 4.43231H38.1743C38.6619 4.40408 39.006 4.74278 39.006 5.19439Z" fill="white"/>
<path d="M59.9717 6.97176H57.7345C57.7345 4.34676 55.5548 2.20159 52.8875 2.20159C50.7651 2.20159 48.9008 3.55645 48.2699 5.53225C48.1265 6.01209 48.0404 6.49192 48.0404 6.97176V13.9718H47.9831C46.7785 13.9718 45.8033 13.0121 45.8033 11.8266V6.97176H45.832C45.832 5.05241 46.6351 3.21773 48.0691 1.89112C49.3884 0.677406 51.1093 0 52.9162 0C56.8168 0 59.9717 3.13305 59.9717 6.97176Z" fill="white"/>
<path d="M59.9999 13.9718L56.845 14L56.0706 13.2379L54.3497 11.5444L51.9692 9.20166H55.1241L59.9999 13.9718Z" fill="white"/>
<path d="M39.7517 11.7702H33.0117C32.1799 11.7702 31.5203 11.121 31.5203 10.3024V3.66936C31.5203 2.85081 32.1799 2.20159 33.0117 2.20159H39.7517C40.5834 2.20159 41.2431 2.85081 41.2431 3.66936V10.3024L43.4802 12.504V2.14515C43.4802 0.959671 42.505 0 41.3005 0H31.4629C30.2583 0 29.2832 0.959671 29.2832 2.14515V11.8266C29.2832 13.0121 30.2583 13.9718 31.4629 13.9718H41.9888L39.7517 11.7702Z" fill="white"/>
<path d="M12.3614 14H9.20656L2.60996 7.47984V14H0V0H2.60996V6.2379L8.94843 0H12.046L5.16255 6.71772L12.3614 14Z" fill="white"/>
<path d="M24.1492 0H26.7018V14H24.1492V7.93145H16.8643V14H14.3117V0H16.8643V5.84273H24.1492V0Z" fill="white"/>
</svg>
