<svg width="45" height="45" viewBox="0 0 45 45" fill="none" xmlns="http://www.w3.org/2000/svg">
<circle cx="22.5" cy="22.5" r="22.5" fill="white"/>
<circle cx="22.501" cy="22.4996" r="18.9705" fill="black"/>
<path d="M21.7204 31.6058C20.6315 31.6058 19.7018 31.4634 18.9312 31.1786C18.1607 30.8771 17.566 30.4415 17.1472 29.872C16.7284 29.2857 16.519 28.5821 16.519 27.7613C16.519 26.9405 16.7284 26.2453 17.1472 25.6758C17.5828 25.0895 18.2026 24.6456 19.0066 24.344C19.8274 24.0425 20.8325 23.8917 22.0219 23.8917V26.3291C21.3016 26.3291 20.7488 26.4463 20.3635 26.6808C19.9782 26.8986 19.7856 27.242 19.7856 27.7111C19.7856 28.1801 19.9615 28.5403 20.3132 28.7915C20.6818 29.026 21.1341 29.1433 21.6701 29.1433H22.7003L21.8209 30.0981L21.8962 22.2082H25.012V31.6058H21.7204ZM18.3785 22.9118V20.4996H27.7509V22.9118H18.3785ZM21.8962 21.2283V20.3991C21.8962 20.2316 21.8627 20.0975 21.7957 19.997C21.7287 19.8798 21.6115 19.7709 21.444 19.6704C21.1424 19.4694 20.7655 19.2516 20.3132 19.0171C19.8777 18.7826 19.5259 18.5899 19.2579 18.4392C18.5543 18.0204 18.1188 17.4676 17.9513 16.7808C17.7838 16.0772 17.8508 15.3401 18.1523 14.5696C18.4706 13.799 18.9145 13.2881 19.484 13.0368C20.0536 12.7855 20.866 12.6599 21.9214 12.6599C22.6082 12.6599 23.2866 12.6934 23.9567 12.7604C24.6435 12.8107 25.3219 12.8861 25.992 12.9866V15.7757C25.3219 15.6752 24.6602 15.5914 24.0069 15.5244C23.3536 15.4574 22.6082 15.4239 21.7706 15.4239C21.5193 15.4239 21.3435 15.449 21.2429 15.4993C21.1424 15.5495 21.0754 15.6333 21.0419 15.7505C20.9917 15.8678 20.9749 15.9767 20.9917 16.0772C21.0084 16.1777 21.0838 16.2698 21.2178 16.3536C21.3351 16.4206 21.5193 16.5295 21.7706 16.6803C22.0386 16.8143 22.3234 16.965 22.6249 17.1325C22.9432 17.3001 23.2196 17.4592 23.4541 17.61C23.9734 17.9115 24.3587 18.2716 24.61 18.6904C24.878 19.0925 25.012 19.662 25.012 20.3991V21.2283H21.8962Z" fill="white"/>
</svg>
