<svg width="42" height="43" viewBox="0 0 42 43" fill="none" xmlns="http://www.w3.org/2000/svg">
<circle cx="21.0005" cy="21.5" r="20.709" fill="white"/>
<circle cx="20.9997" cy="21.5" r="17.4604" fill="black"/>
<path d="M21.0533 28.9758C19.6696 28.9758 18.5188 28.7782 17.601 28.3828C16.6832 27.9733 15.9913 27.4015 15.5254 26.6672C15.0594 25.9189 14.8264 25.0434 14.8264 24.0409H17.9399C17.9399 24.4363 18.0458 24.8104 18.2576 25.1634C18.4694 25.5023 18.8083 25.7777 19.2742 25.9895C19.7402 26.1871 20.3332 26.286 21.0533 26.286C22.0135 26.286 22.7477 26.1165 23.2561 25.7777C23.7785 25.4388 24.0397 24.9869 24.0397 24.4221C24.0397 23.9279 23.8209 23.5255 23.3832 23.2149C22.9454 22.8901 22.2465 22.6783 21.2863 22.5795L20.2061 22.4948C18.6953 22.3536 17.4951 21.9017 16.6055 21.1392C15.716 20.3626 15.2712 19.2683 15.2712 17.8563C15.2712 16.8821 15.4901 16.0702 15.9278 15.4206C16.3655 14.757 16.9938 14.2628 17.8128 13.938C18.6318 13.5991 19.6131 13.4297 20.7568 13.4297C21.9853 13.4297 23.016 13.6203 23.8491 14.0016C24.6822 14.3828 25.3105 14.9335 25.7341 15.6536C26.1719 16.3737 26.3907 17.2492 26.3907 18.2799H23.2772C23.2772 17.8705 23.1784 17.5104 22.9807 17.1998C22.7972 16.875 22.5218 16.6138 22.1547 16.4161C21.7876 16.2184 21.3216 16.1196 20.7568 16.1196C20.2626 16.1196 19.839 16.1902 19.486 16.3314C19.133 16.4726 18.8647 16.6773 18.6812 16.9456C18.4976 17.1998 18.4058 17.5033 18.4058 17.8563C18.4058 18.2941 18.5682 18.6894 18.893 19.0424C19.2177 19.3813 19.7543 19.5931 20.5027 19.6778L21.5828 19.7625C23.2772 19.9037 24.6328 20.3626 25.6494 21.1392C26.6661 21.9158 27.1744 23.0101 27.1744 24.4221C27.1744 25.3964 26.9343 26.2224 26.4543 26.9002C25.9742 27.578 25.2752 28.0933 24.3574 28.4463C23.4537 28.7993 22.3524 28.9758 21.0533 28.9758ZM19.5496 31.6234V28.5311H22.3241V31.6234H19.5496ZM19.4648 14.4675V11.3752H22.2394V14.4675H19.4648Z" fill="white"/>
</svg>
